<svg xmlns="http://www.w3.org/2000/svg" width="1600" height="900" viewBox="0 0 1600 900">
<rect width="100%" height="100%" fill="#0A0A0A"/>
<circle cx="400" cy="450" r="80" fill="#C9A646"/>
<circle cx="400" cy="450" r="150" fill="none" stroke="#C9A646" stroke-width="20"/>
<path d="M 561.48,437.05 L 650.00,450.00 L 561.48,462.95 Z" fill="#C9A646"/>
<path d="M 554.14,499.84 L 630.97,545.67 L 544.24,523.76 Z" fill="#C9A646"/>
<path d="M 523.34,555.03 L 576.78,626.78 L 505.03,573.34 Z" fill="#C9A646"/>
<path d="M 473.76,594.24 L 495.67,680.97 L 449.84,604.14 Z" fill="#C9A646"/>
<path d="M 412.95,611.48 L 400.00,700.00 L 387.05,611.48 Z" fill="#C9A646"/>
<path d="M 350.16,604.14 L 304.33,680.97 L 326.24,594.24 Z" fill="#C9A646"/>
<path d="M 294.97,573.34 L 223.22,626.78 L 276.66,555.03 Z" fill="#C9A646"/>
<path d="M 255.76,523.76 L 169.03,545.67 L 245.86,499.84 Z" fill="#C9A646"/>
<path d="M 238.52,462.95 L 150.00,450.00 L 238.52,437.05 Z" fill="#C9A646"/>
<path d="M 245.86,400.16 L 169.03,354.33 L 255.76,376.24 Z" fill="#C9A646"/>
<path d="M 276.66,344.97 L 223.22,273.22 L 294.97,326.66 Z" fill="#C9A646"/>
<path d="M 326.24,305.76 L 304.33,219.03 L 350.16,295.86 Z" fill="#C9A646"/>
<path d="M 387.05,288.52 L 400.00,200.00 L 412.95,288.52 Z" fill="#C9A646"/>
<path d="M 449.84,295.86 L 495.67,219.03 L 473.76,305.76 Z" fill="#C9A646"/>
<path d="M 505.03,326.66 L 576.78,273.22 L 523.34,344.97 Z" fill="#C9A646"/>
<path d="M 544.24,376.24 L 630.97,354.33 L 554.14,400.16 Z" fill="#C9A646"/>

<text x="700" y="475" fill="#C9A646" font-family="Georgia, 'Times New Roman', serif"
      font-weight="700" font-size="170" letter-spacing="5">
  AYUTA
</text>

<line x1="700" y1="495" x2="1480" y2="495" stroke="#C9A646" stroke-width="3" opacity="0.2"/>
</svg>